<?xml version="1.0" encoding="utf-8"?>
<!-- Generator: Adobe Illustrator 16.0.0, SVG Export Plug-In . SVG Version: 6.00 Build 0)  -->
<!DOCTYPE svg PUBLIC "-//W3C//DTD SVG 1.1//EN" "http://www.w3.org/Graphics/SVG/1.1/DTD/svg11.dtd">
<svg version="1.1" id="Layer_1" xmlns="http://www.w3.org/2000/svg" xmlns:xlink="http://www.w3.org/1999/xlink" x="0px" y="0px"
	 width="1728px" height="864px" viewBox="0 0 1728 864" enable-background="new 0 0 1728 864" xml:space="preserve">
<g>
	<path fill="none" stroke="#000000" stroke-width="0.072" d="M886.076,701.533v36H1030V125.604H886.076v36 M1015.19,599.643v28.08
		h-8.301v-28.08H1015.19L1015.19,599.643z M1015.19,235.415v28.08h-8.301v-28.08H1015.19L1015.19,235.415z M937.91,140.173v8.302
		h-28.077v-8.302H937.91L937.91,140.173z M1005.75,140.173v8.302h-28.08v-8.302H1005.75L1005.75,140.173z M937.91,714.662v8.301
		h-28.077v-8.301H937.91L937.91,714.662z M1005.75,714.662v8.301h-28.08v-8.301H1005.75L1005.75,714.662z"/>
	<path fill="none" stroke="#231F20" stroke-width="0.072" d="M886.04,162.104h70c0,0,12,0,12,12v514.927c0,0,0,12-12,12h-70"/>
	<path fill="none" stroke="#000000" stroke-width="0.072" d="M1174,701.137v36.396h-143.92 M1044.89,599.643v28.08h8.301v-28.08
		H1044.89L1044.89,599.643z M1044.89,235.415v28.08h8.301v-28.08H1044.89L1044.89,235.415z M1122.17,140.173v8.302h28.08v-8.302
		H1122.17L1122.17,140.173z M1054.33,140.173v8.302h28.08v-8.302H1054.33L1054.33,140.173z M1122.17,714.662v8.301h28.08v-8.301
		H1122.17L1122.17,714.662z M1054.33,714.662v8.301h28.08v-8.301H1054.33L1054.33,714.662z"/>
	<path fill="none" stroke="#231F20" stroke-width="0.072" d="M1174.04,162.104h-70c0,0-12,0-12,12v514.927c0,0,0,12,12,12h70"/>
	<polyline fill="none" stroke="#000000" stroke-width="0.072" points="1030.08,125.604 1174,125.604 1174,162.36 	"/>
	<text transform="matrix(1 0 0 1 538.001 666.0859)" fill="#FF0000" font-family="'ArialMT'" font-size="11">DanChen Loom </text>
	<text transform="matrix(1 0 0 1 617.9541 666.0859)" fill="#FF0000" font-family="'ArialMT'" font-size="11">v1</text>
	<text transform="matrix(1 0 0 1 629.04 666.0859)" fill="#FF0000" font-family="'ArialMT'" font-size="11">0 </text>
	<text transform="matrix(1 0 0 1 538.001 679.2812)" fill="#FF0000" font-family="'ArialMT'" font-size="11">lab</text>
	<text transform="matrix(1 0 0 1 552.376 679.2812)" fill="#FF0000" font-family="'ArialMT'" font-size="11">.pix</text>
	<text transform="matrix(1 0 0 1 569.1885 679.2812)" fill="#FF0000" font-family="'ArialMT'" font-size="11">edge</text>
	<text transform="matrix(1 0 0 1 593.4854 679.2812)" fill="#FF0000" font-family="'ArialMT'" font-size="11">.c</text>
	<text transform="matrix(1 0 0 1 602.0244 679.2812)" fill="#FF0000" font-family="'ArialMT'" font-size="11">om</text>
	<text transform="matrix(1 0 0 1 617.4385 679.2812)" fill="#FF0000" font-family="'ArialMT'" font-size="11">/l</text>
	<text transform="matrix(1 0 0 1 623.0791 679.2812)" fill="#FF0000" font-family="'ArialMT'" font-size="11">oo</text>
	<text transform="matrix(1 0 0 1 635.3604 679.2812)" fill="#FF0000" font-family="'ArialMT'" font-size="11">m</text>
	<path fill="none" stroke="#000000" stroke-width="0.072" d="M1341.51,700.596c-6,0-10.87-6.135-10.87-13.707v-98.584
		c0-7.57,4.87-13.709,10.87-13.709h25.061c6,0,10.87,6.139,10.87,13.709v98.584c0,7.572-4.87,13.707-10.87,13.707H1341.51
		L1341.51,700.596z M685.04,737.568V125.641 M799.513,125.641h86.491 M785.185,737.568H685.076 M799.569,125.604v-8.487
		l12.399-0.082v-4.751l-4.5-4.249h-22.228v5.568v2.928v9.072 M799.685,737.604v8.488l12.399,0.08v4.752l-4.5,4.248h-22.228v-5.568
		v-2.928v-9.072 M685.076,125.641h100.109 M886.004,737.568h-86.491"/>
	<path fill="none" stroke="#231F20" stroke-width="0.072" d="M885.996,162.104h-24c0,0-12,0-12,12v514.927c0,0,0,12,12,12h24"/>
	<path fill="none" stroke="#000000" stroke-width="0.072" d="M684.968,737.568 M570.495,125.641h-86.491 M584.823,737.568h100.109
		 M570.439,125.604v-8.487l-12.4-0.082v-4.751l4.5-4.249h22.228v5.568v2.928v9.072 M570.324,737.604v8.488l-12.4,0.08v4.752
		l4.5,4.248h22.229v-5.568v-2.928v-9.072 M684.932,125.641H584.823 M484.004,737.568h86.491"/>
	<path fill="none" stroke="#231F20" stroke-width="0.072" d="M484.012,162.104h24c0,0,12,0,12,12v514.927c0,0,0,12-12,12h-24"/>
	<path fill="none" stroke="#000000" stroke-width="0.072" d="M684.968,125.641 M484.04,125.604v36 M484.04,701.568v36
		 M1341.51,288.037c-6,0-10.87-6.136-10.87-13.707v-98.585c0-7.57,4.87-13.708,10.87-13.708h25.061c6,0,10.87,6.138,10.87,13.708
		v98.585c0,7.571-4.87,13.707-10.87,13.707H1341.51L1341.51,288.037z M1354.08,701.1 M1363,272.984h-17.92v-95.897H1363v92.854
		V272.984L1363,272.984z M1363,685.779h-17.92v-95.896H1363v92.854V685.779L1363,685.779z"/>
	<text transform="matrix(1 0 0 1 559.915 435.6328)" fill="#FF0000" font-family="'ArialMT'" font-size="11">Inside</text>
	<polygon fill="#FF0000" points="544.698,431.604 553.435,436.361 553.435,426.848 544.698,431.604 	"/>
	<text transform="matrix(-1 0 0 -1 810.0791 427.5703)" fill="#FF0000" font-family="'ArialMT'" font-size="11">Inside</text>
	<polygon fill="#FF0000" points="825.292,431.604 816.556,426.848 816.556,436.361 825.292,431.604 	"/>
	<path fill="none" stroke="#000000" stroke-width="0.072" d="M1354.08,161.172 M1354.08,125.604v35.568 M1354.08,574.561V288.073
		 M1378.01,125.604h-23.93 M1377.97,125.605v-8.487l-12.399-0.081v-4.752l4.5-4.248h22.229v5.568v2.928v9.072 M1445.88,125.605
		v-8.487l-12.4-0.081v-4.752l4.5-4.248h22.23v5.568v2.928v9.072 M1445.81,737.568v8.486l-12.399,0.082v4.752l4.5,4.248h22.22v-5.568
		v-2.928v-9.072 M1377.97,737.568v8.486l-12.399,0.082v4.752l4.5,4.248h22.229v-5.568v-2.928v-9.072 M1445.84,125.604h-53.5
		 M1460.17,737.533h27.521l0,0H1534 M1392.34,737.533h53.5 M1534,168.84v-43.236h-36v0h-37.83 M1534,737.568v-43.199h-26.92v-7.129
		H1534v-5.832h-26.92v-7.127H1534v-5.832h-26.92v-7.129H1534v-5.832h-26.92v-7.127H1534v-5.832h-26.92V635.4H1534v-5.832h-26.92
		v-7.127H1534v-5.832h-26.92v-7.129H1534v-5.832h-26.92v-7.129H1534v-5.83h-26.92v-7.129H1534v-5.832h-26.92V570.6H1534v-5.832
		h-26.92v-7.127H1534v-5.832h-26.92v-7.129H1534v-5.832h-26.92v-7.127H1534v-5.832h-26.92v-7.129H1534v-5.832h-26.92v-7.127H1534
		v-5.832h-26.92v-7.129H1534v-5.832h-26.92v-7.127H1534v-5.832h-26.92v-7.129H1534v-5.832h-26.92v-7.127H1534v-5.832h-26.92V441
		H1534v-5.832h-26.92v-7.127H1534v-5.832h-26.92v-7.128H1534v-5.832h-26.92v-7.128H1534v-5.832h-26.92v-7.128H1534v-5.832h-26.92
		v-7.128H1534v-5.832h-26.92v-7.128H1534v-5.832h-26.92v-7.128H1534v-5.832h-26.92v-7.128H1534v-5.832h-26.92v-7.128H1534v-5.832
		h-26.92V311.4H1534v-5.832h-26.92v-7.128H1534v-5.832h-26.92v-7.128H1534v-5.832h-26.92v-7.128H1534v-5.832h-26.92v-7.128H1534
		v-5.832h-26.92v-7.128H1534v-5.832h-26.92v-7.128H1534v-5.832h-26.92v-7.128H1534v-5.832h-26.92v-7.128H1534v-5.832h-26.92v-7.128
		H1534v-5.832h-26.92V181.8H1534v-5.832h-26.92v-7.128H1534 M1354.08,737.533h23.93 M1354.08,701.1v36.434 M1330.181,125.604h23.93
		 M1330.21,125.605v-8.487l12.4-0.081v-4.752l-4.5-4.248h-22.221v5.568v2.928v9.072 M1262.31,125.605v-8.487l12.4-0.081v-4.752
		l-4.5-4.248h-22.23v5.568v2.928v9.072 M1262.38,737.568v8.486l12.4,0.082v4.752l-4.5,4.248h-22.23v-5.568v-2.928v-9.072
		 M1330.21,737.568v8.486l12.4,0.082v4.752l-4.5,4.248h-22.221v-5.568v-2.928v-9.072 M1262.351,125.604h53.5 M1248.021,737.533
		H1220.5l0,0h-46.319 M1315.851,737.533h-53.5 M1174.181,168.84v-43.236h36v0h37.84 M1174.181,737.568v-43.199h26.93v-7.129h-26.93
		v-5.832h26.93v-7.127h-26.93v-5.832h26.93v-7.129h-26.93v-5.832h26.93v-7.127h-26.93v-5.832h26.93V635.4h-26.93v-5.832h26.93
		v-7.127h-26.93v-5.832h26.93v-7.129h-26.93v-5.832h26.93v-7.129h-26.93v-5.83h26.93v-7.129h-26.93v-5.832h26.93V570.6h-26.93
		v-5.832h26.93v-7.127h-26.93v-5.832h26.93v-7.129h-26.93v-5.832h26.93v-7.127h-26.93v-5.832h26.93v-7.129h-26.93v-5.832h26.93
		v-7.127h-26.93v-5.832h26.93v-7.129h-26.93v-5.832h26.93v-7.127h-26.93v-5.832h26.93v-7.129h-26.93v-5.832h26.93v-7.127h-26.93
		v-5.832h26.93V441h-26.93v-5.832h26.93v-7.127h-26.93v-5.832h26.93v-7.128h-26.93v-5.832h26.93v-7.128h-26.93v-5.832h26.93v-7.128
		h-26.93v-5.832h26.93v-7.128h-26.93v-5.832h26.93v-7.128h-26.93v-5.832h26.93v-7.128h-26.93v-5.832h26.93v-7.128h-26.93v-5.832
		h26.93v-7.128h-26.93v-5.832h26.93V311.4h-26.93v-5.832h26.93v-7.128h-26.93v-5.832h26.93v-7.128h-26.93v-5.832h26.93v-7.128
		h-26.93v-5.832h26.93v-7.128h-26.93v-5.832h26.93v-7.128h-26.93v-5.832h26.93v-7.128h-26.93v-5.832h26.93v-7.128h-26.93v-5.832
		h26.93v-7.128h-26.93v-5.832h26.93v-7.128h-26.93v-5.832h26.93V181.8h-26.93v-5.832h26.93v-7.128h-26.93 M1354.11,737.533h-23.93"
		/>
	<path fill="none" stroke="#231F20" stroke-width="0.072" d="M246.964,717.684v-47v-30.527v-437.4l0,0v-47c0,0,0-7-7-7h-3.928
		c0,0-7,0-7,7v47h-0.072v0.92c0,7-7,7-7,7h-3.928c-7,0-7-7-7-7v-0.92h-0.072v-47c0,0,0-7-7-7h-3.928c0,0-7,0-7,7v47v38.447v429.48
		l0,0v47c0,0,0,7,7,7h3.928c0,0,7,0,7-7v-47h0.072v-0.92c0-7,7-7,7-7h3.928c7,0,7,7,7,7v0.92h0.072v47c0,0,0,7,7,7h3.928
		C239.964,724.684,246.964,724.684,246.964,717.684L246.964,717.684z"/>
	<path fill="none" stroke="#000000" stroke-width="0.072" d="M484.022,149.641v18.973 M358.094,164.64h30v-15h70.928l0,0h25.018
		l-0.018,18.973 M484.022,694.195l0.018,19.373h-25.018l0,0h-70.928v-15h-30"/>
	<path fill="none" stroke="#231F20" stroke-width="0.072" d="M484.04,168.518h-69.428l-4.5,2.15l4.5,2.15h69.428v3.325h-49.428
		l-4.5,1.045l4.5,1.042h49.428v3.327h-69.428l-4.5,2.15l4.5,2.15h69.428v3.327h-49.428l-4.5,1.043l4.5,1.044h49.428v3.325h-69.428
		l-4.5,2.15l4.5,2.152h69.428v3.325h-49.428l-4.5,1.045l4.5,1.043h49.428v3.324h-69.428l-4.5,2.152l4.5,2.151h69.428v3.324h-49.428
		l-4.5,1.045l4.5,1.043h49.428v3.326h-69.428l-4.5,2.15l4.5,2.151h69.428v3.326h-49.428l-4.5,1.043l4.5,1.045h49.428v3.324h-69.428
		l-4.5,2.15l4.5,2.151h69.428v3.326h-49.428l-4.5,1.043l4.5,1.045h49.428v3.324h-69.428l-4.5,2.152l4.5,2.151h69.428v3.324h-49.428
		l-4.5,1.045l4.5,1.043h49.428v3.326h-69.428l-4.5,2.15l4.5,2.151h69.428v3.326h-49.428l-4.5,1.043l4.5,1.045h49.428v3.324h-69.428
		l-4.5,2.15l4.5,2.151h69.428v3.326h-49.428l-4.5,1.043l4.5,1.045h49.428v3.324h-69.428l-4.5,2.152l4.5,2.151h69.428v3.324h-49.428
		l-4.5,1.045l4.5,1.043h49.428v3.326h-69.428l-4.5,2.15l4.5,2.151h69.428v3.324h-49.428l-4.5,1.045l4.5,1.045h49.428v3.324h-69.428
		l-4.5,2.151l4.5,2.15h69.428v3.326h-49.428l-4.5,1.043l4.5,1.045h49.428v3.324h-69.428l-4.5,2.151l4.5,2.152h69.428v3.324h-49.428
		l-4.5,1.045l4.5,1.043h49.428v3.326h-69.428l-4.5,2.151l4.5,2.15h69.428v3.324h-49.428l-4.5,1.045l4.5,1.043h49.428v3.326h-69.428
		l-4.5,2.151l4.5,2.15h69.428v3.326h-49.428l-4.5,1.043l4.5,1.045h49.428v3.324h-69.428l-4.5,2.151l4.5,2.152h69.428v3.324h-49.428
		l-4.5,1.045l4.5,1.043h49.428v3.324h-69.428l-4.5,2.153l4.5,2.15h69.428v3.324h-49.428l-4.5,1.045l4.5,1.043h49.428v3.326h-69.428
		l-4.5,2.151l4.5,2.15h69.428v3.326h-49.428l-4.5,1.043l4.5,1.045h49.428v3.324h-69.428l-4.5,2.151l4.5,2.15h69.428v3.326h-49.428
		l-4.5,1.043l4.5,1.045h49.428v3.325h-69.428l-4.5,2.152l4.5,2.15h69.428v3.324h-49.428l-4.5,1.045l4.5,1.043h49.428v3.327h-69.428
		l-4.5,2.15l4.5,2.15h69.428v3.327h-49.428l-4.5,1.042l4.5,1.045h49.428v3.325h-69.428l-4.5,2.149l4.5,2.15h69.428v3.327h-49.428
		l-4.5,1.043l4.5,1.044h49.428v3.325h-69.428l-4.5,2.151l4.5,2.15h69.428v3.325h-49.428l-4.5,1.045l4.5,1.043h49.428v3.326h-69.428
		l-4.5,2.149l4.5,2.15h69.428v3.325h-49.428l-4.5,1.045l4.5,1.045h49.428v3.323h-69.428l-4.5,2.15l4.5,2.151h69.428v3.326h-49.428
		l-4.5,1.043l4.5,1.045h49.428v3.323h-69.428l-4.5,2.15l4.5,2.153h69.428v3.323h-49.428l-4.5,1.046l4.5,1.042h49.428v3.324h-69.428
		l-4.5,2.152l4.5,2.15h69.428v3.324h-49.428l-4.5,1.045l4.5,1.043h49.428v3.326h-69.428l-4.5,2.15l4.5,2.15h69.428v3.326h-49.428
		l-4.5,1.043l4.5,1.045h49.428v3.324h-69.428l-4.5,2.15l4.5,2.15h69.428v3.326h-49.428l-4.5,1.043l4.5,1.045h49.428v3.324h-69.428
		l-4.5,2.152l4.5,2.15h69.428v3.324h-49.428l-4.5,1.045l4.5,1.043h49.428v3.326h-69.428l-4.5,2.15l4.5,2.15h69.428v3.324h-49.428
		l-4.5,1.045l4.5,1.045h49.428v3.324h-69.428l-4.5,2.15l4.5,2.15h69.428v3.326h-49.428l-4.5,1.043l4.5,1.045h49.428v3.324h-69.428
		l-4.5,2.15l4.5,2.152h69.428v3.324h-49.428l-4.5,1.045l4.5,1.043h49.428v3.326h-69.428l-4.5,2.15l4.5,2.15h69.428v3.324h-49.428
		l-4.5,1.045l4.5,1.043h49.428v3.326h-69.428l-4.5,2.15l4.5,2.15h69.428v3.326h-49.428l-4.5,1.043l4.5,1.045h49.428v3.324h-69.428
		l-4.5,2.15l4.5,2.152h69.428v3.324h-49.428l-4.5,1.045l4.5,1.043h49.428v3.326h-69.428l-4.5,2.15l4.5,2.15h69.428v3.324h-49.428
		l-4.5,1.045l4.5,1.043h49.428v3.326h-69.428l-4.5,2.15l4.5,2.15h69.428v3.326h-49.428l-4.5,1.043l4.5,1.045h49.428v3.324h-69.428
		l-4.5,2.15l4.5,2.15h69.428v3.326h-49.428l-4.5,1.043l4.5,1.045h49.428v3.324h-69.428l-4.5,2.152l4.5,2.15h69.428v3.324h-49.428
		l-4.5,1.045l4.5,1.043h49.428v3.328h-69.428l-4.5,2.148l4.5,2.15h69.428 M256.604,163.038 M252.076,168.518h69.428l4.5,2.15
		l-4.5,2.15h-69.428v3.325h49.428l4.5,1.045l-4.5,1.042h-49.428v3.327h69.428l4.5,2.15l-4.5,2.15h-69.428v3.327h49.428l4.5,1.043
		l-4.5,1.044h-49.428v3.325h69.428l4.5,2.15l-4.5,2.152h-69.428v3.325h49.428l4.5,1.045l-4.5,1.043h-49.428v3.324h69.428l4.5,2.152
		l-4.5,2.151h-69.428v3.324h49.428l4.5,1.045l-4.5,1.043h-49.428v3.326h69.428l4.5,2.15l-4.5,2.151h-69.428v3.326h49.428l4.5,1.043
		l-4.5,1.045h-49.428v3.324h69.428l4.5,2.15l-4.5,2.151h-69.428v3.326h49.428l4.5,1.043l-4.5,1.045h-49.428v3.324h69.428l4.5,2.152
		l-4.5,2.151h-69.428v3.324h49.428l4.5,1.045l-4.5,1.043h-49.428v3.326h69.428l4.5,2.15l-4.5,2.151h-69.428v3.326h49.428l4.5,1.043
		l-4.5,1.045h-49.428v3.324h69.428l4.5,2.15l-4.5,2.151h-69.428v3.326h49.428l4.5,1.043l-4.5,1.045h-49.428v3.324h69.428l4.5,2.152
		l-4.5,2.151h-69.428v3.324h49.428l4.5,1.045l-4.5,1.043h-49.428v3.326h69.428l4.5,2.15l-4.5,2.151h-69.428v3.324h49.428l4.5,1.045
		l-4.5,1.045h-49.428v3.324h69.428l4.5,2.151l-4.5,2.15h-69.428v3.326h49.428l4.5,1.043l-4.5,1.045h-49.428v3.324h69.428l4.5,2.151
		l-4.5,2.152h-69.428v3.324h49.428l4.5,1.045l-4.5,1.043h-49.428v3.326h69.428l4.5,2.151l-4.5,2.15h-69.428v3.324h49.428l4.5,1.045
		l-4.5,1.043h-49.428v3.326h69.428l4.5,2.151l-4.5,2.15h-69.428v3.326h49.428l4.5,1.043l-4.5,1.045h-49.428v3.324h69.428l4.5,2.151
		l-4.5,2.152h-69.428v3.324h49.428l4.5,1.045l-4.5,1.043h-49.428v3.324h69.428l4.5,2.153l-4.5,2.15h-69.428v3.324h49.428l4.5,1.045
		l-4.5,1.043h-49.428v3.326h69.428l4.5,2.151l-4.5,2.15h-69.428v3.326h49.428l4.5,1.043l-4.5,1.045h-49.428v3.324h69.428l4.5,2.151
		l-4.5,2.15h-69.428v3.326h49.428l4.5,1.043l-4.5,1.045h-49.428v3.325h69.428l4.5,2.152l-4.5,2.15h-69.428v3.324h49.428l4.5,1.045
		l-4.5,1.043h-49.428v3.327h69.428l4.5,2.15l-4.5,2.15h-69.428v3.327h49.428l4.5,1.042l-4.5,1.045h-49.428v3.325h69.428l4.5,2.149
		l-4.5,2.15h-69.428v3.327h49.428l4.5,1.043l-4.5,1.044h-49.428v3.325h69.428l4.5,2.151l-4.5,2.15h-69.428v3.325h49.428l4.5,1.045
		l-4.5,1.043h-49.428v3.326h69.428l4.5,2.149l-4.5,2.15h-69.428v3.325h49.428l4.5,1.045l-4.5,1.045h-49.428v3.323h69.428l4.5,2.15
		l-4.5,2.151h-69.428v3.326h49.428l4.5,1.043l-4.5,1.045h-49.428v3.323h69.428l4.5,2.15l-4.5,2.153h-69.428v3.323h49.428l4.5,1.046
		l-4.5,1.042h-49.428v3.324h69.428l4.5,2.152l-4.5,2.15h-69.428v3.324h49.428l4.5,1.045l-4.5,1.043h-49.428v3.326h69.428l4.5,2.15
		l-4.5,2.15h-69.428v3.326h49.428l4.5,1.043l-4.5,1.045h-49.428v3.324h69.428l4.5,2.15l-4.5,2.15h-69.428v3.326h49.428l4.5,1.043
		l-4.5,1.045h-49.428v3.324h69.428l4.5,2.152l-4.5,2.15h-69.428v3.324h49.428l4.5,1.045l-4.5,1.043h-49.428v3.326h69.428l4.5,2.15
		l-4.5,2.15h-69.428v3.324h49.428l4.5,1.045l-4.5,1.045h-49.428v3.324h69.428l4.5,2.15l-4.5,2.15h-69.428v3.326h49.428l4.5,1.043
		l-4.5,1.045h-49.428v3.324h69.428l4.5,2.15l-4.5,2.152h-69.428v3.324h49.428l4.5,1.045l-4.5,1.043h-49.428v3.326h69.428l4.5,2.15
		l-4.5,2.15h-69.428v3.324h49.428l4.5,1.045l-4.5,1.043h-49.428v3.326h69.428l4.5,2.15l-4.5,2.15h-69.428v3.326h49.428l4.5,1.043
		l-4.5,1.045h-49.428v3.324h69.428l4.5,2.15l-4.5,2.152h-69.428v3.324h49.428l4.5,1.045l-4.5,1.043h-49.428v3.326h69.428l4.5,2.15
		l-4.5,2.15h-69.428v3.324h49.428l4.5,1.045l-4.5,1.043h-49.428v3.326h69.428l4.5,2.15l-4.5,2.15h-69.428v3.326h49.428l4.5,1.043
		l-4.5,1.045h-49.428v3.324h69.428l4.5,2.15l-4.5,2.15h-69.428v3.326h49.428l4.5,1.043l-4.5,1.045h-49.428v3.324h69.428l4.5,2.152
		l-4.5,2.15h-69.428v3.324h49.428l4.5,1.045l-4.5,1.043h-49.428v3.328h69.428l4.5,2.148l-4.5,2.15h-69.428"/>
	<path fill="none" stroke="#000000" stroke-width="0.072" d="M358.022,164.64h-10v-15h-70.928l0,0h-25.018l0.018,18.973
		 M252.094,694.195l-0.018,19.373h25.018l0,0h70.928v-15h10 M358.058,698.57V164.689"/>
	<path fill="none" stroke="#231F20" stroke-width="0.072" d="M886.004,162V701.1 M1127.53,162V701.1 M932.48,162V701.1 M1174,162
		V701.1"/>
</g>
</svg>
